<?xml version="1.0" standalone="no"?>
<!DOCTYPE svg PUBLIC "-//W3C//DTD SVG 20010904//EN"
 "http://www.w3.org/TR/2001/REC-SVG-20010904/DTD/svg10.dtd">
<svg version="1.0" xmlns="http://www.w3.org/2000/svg"
 width="136.000000pt" height="146.000000pt" viewBox="0 0 136.000000 146.000000"
 preserveAspectRatio="xMidYMid meet">

<g transform="translate(0.000000,146.000000) scale(0.100000,-0.100000)"
fill="#000000" stroke="none">
<path d="M617 1302 c-22 -24 -21 -55 1 -75 36 -32 85 -10 85 38 0 49 -54 72
-86 37z"/>
<path d="M446 1265 c-7 -27 3 -51 41 -102 31 -42 43 -42 43 1 0 90 -67 170
-84 101z"/>
<path d="M807 1275 c-19 -18 -41 -110 -33 -132 6 -14 11 -12 36 12 36 35 54
77 46 110 -7 28 -27 32 -49 10z"/>
<path d="M558 1166 c3 -55 6 -65 25 -70 12 -3 23 -3 25 -1 8 8 -19 89 -36 113
-16 21 -17 20 -14 -42z"/>
<path d="M728 1202 c-19 -31 -40 -112 -29 -111 35 4 43 17 44 77 1 34 2 62 2
62 -1 0 -8 -13 -17 -28z"/>
<path d="M308 1179 c-22 -13 -24 -62 -2 -83 34 -34 84 -8 84 44 0 42 -43 62
-82 39z"/>
<path d="M927 1172 c-24 -27 -21 -59 8 -78 51 -33 104 21 71 71 -20 30 -56 33
-79 7z"/>
<path d="M827 1128 c-28 -29 -36 -45 -32 -59 10 -30 27 -19 53 34 32 64 24 73
-21 25z"/>
<path d="M440 1147 c0 -20 35 -93 48 -101 5 -3 14 6 21 21 6 14 10 26 9 27 -2
0 -20 17 -41 35 -29 27 -37 31 -37 18z"/>
<path d="M728 1068 c-29 -10 -32 -18 -22 -55 7 -26 31 -30 59 -9 18 13 18 16
5 44 -13 26 -18 28 -42 20z"/>
<path d="M532 1045 c-7 -15 -11 -29 -10 -30 2 -1 17 -10 35 -19 l32 -16 10 37
c12 43 13 41 -25 49 -26 5 -32 2 -42 -21z"/>
<path d="M632 1014 c-8 -28 -8 -36 4 -41 28 -10 45 5 38 34 -13 55 -26 58 -42
7z"/>
<path d="M346 999 c37 -36 44 -40 63 -30 27 15 19 28 -33 52 -65 30 -75 23
-30 -22z"/>
<path d="M935 1026 c-16 -8 -39 -21 -50 -29 -19 -15 -19 -15 6 -27 23 -10 29
-8 66 29 43 43 35 52 -22 27z"/>
<path d="M193 1024 c-21 -9 7 -52 40 -64 40 -14 120 -13 112 1 -4 6 -25 24
-47 40 -38 27 -75 35 -105 23z"/>
<path d="M1012 1003 c-60 -39 -61 -53 -6 -53 50 0 98 20 108 46 16 42 -41 46
-102 7z"/>
<path d="M487 984 c-3 -3 4 -21 15 -40 l21 -35 24 23 24 22 -33 18 c-37 19
-42 21 -51 12z"/>
<path d="M776 975 c-10 -8 -24 -16 -30 -18 -11 -4 20 -47 34 -47 6 0 40 64 40
75 0 10 -26 4 -44 -10z"/>
<path d="M428 944 c-32 -17 -31 -14 -18 -49 9 -23 14 -26 38 -20 40 10 45 19
28 54 -9 17 -18 31 -19 31 -1 -1 -14 -8 -29 -16z"/>
<path d="M827 924 c-17 -34 -17 -35 9 -44 30 -12 54 -13 54 -2 0 4 3 17 6 29
5 17 -1 25 -23 37 -30 15 -30 15 -46 -20z"/>
<path d="M279 898 c40 -25 101 -35 101 -17 0 27 -16 34 -73 35 l-57 0 29 -18z"/>
<path d="M930 908 c0 -3 -3 -13 -6 -22 -9 -23 37 -21 86 4 22 11 40 22 40 23
0 1 -27 2 -60 2 -33 0 -60 -3 -60 -7z"/>
<path d="M177 862 c-21 -23 -22 -56 -1 -76 34 -34 84 -11 84 39 0 51 -50 73
-83 37z"/>
<path d="M1062 864 c-27 -18 -29 -55 -4 -77 26 -23 58 -21 76 5 21 30 20 44
-4 68 -24 24 -38 25 -68 4z"/>
<path d="M480 850 c-8 -5 -25 -10 -37 -10 -38 0 -26 -25 17 -37 l40 -10 0 33
c0 38 1 37 -20 24z"/>
<path d="M800 823 c0 -30 3 -34 18 -28 9 4 27 10 40 12 35 8 26 28 -18 40
l-40 10 0 -34z"/>
<path d="M300 757 l-45 -22 54 -3 c54 -3 70 5 71 36 0 18 -29 14 -80 -11z"/>
<path d="M410 755 c-13 -35 -14 -32 20 -50 29 -15 30 -15 46 16 17 35 12 44
-28 54 -24 6 -29 3 -38 -20z"/>
<path d="M838 768 c-27 -9 -28 -10 -12 -41 9 -18 18 -33 19 -35 2 -2 14 3 27
10 12 7 25 14 26 15 2 1 1 15 -3 32 -7 33 -14 35 -57 19z"/>
<path d="M926 758 c9 -31 5 -29 70 -26 l59 3 -45 22 c-25 13 -55 23 -68 23
-20 0 -22 -4 -16 -22z"/>
<path d="M501 702 c-12 -23 -18 -43 -13 -45 4 -2 24 6 45 18 l37 21 -24 23
-25 23 -20 -40z"/>
<path d="M772 732 c-7 -2 -17 -12 -22 -22 -8 -15 -4 -22 25 -39 19 -11 37 -16
40 -11 9 14 -29 77 -43 72z"/>
<path d="M234 688 c-18 -6 -37 -21 -43 -34 -9 -22 -8 -26 12 -33 29 -11 83 11
122 49 l30 30 -45 -1 c-25 -1 -59 -6 -76 -11z"/>
<path d="M962 688 c5 -16 75 -64 104 -72 11 -3 28 0 38 7 42 30 -23 77 -106
77 -27 0 -38 -4 -36 -12z"/>
<path d="M348 650 c-42 -45 -31 -52 32 -20 49 25 56 36 31 49 -25 14 -20 16
-63 -29z"/>
<path d="M892 676 c-27 -15 -18 -26 41 -51 60 -25 67 -17 25 25 -22 22 -41 40
-42 40 0 -1 -11 -6 -24 -14z"/>
<path d="M632 630 c13 -48 22 -50 37 -9 16 45 14 49 -18 49 -29 0 -29 0 -19
-40z"/>
<path d="M543 645 c-22 -15 -21 -29 2 -73 2 -3 65 19 65 22 0 2 -5 17 -11 35
-12 35 -24 38 -56 16z"/>
<path d="M706 638 c-10 -38 -7 -46 22 -56 25 -9 30 -7 45 19 16 29 16 29 -13
44 -39 20 -47 19 -54 -7z"/>
<path d="M466 569 c-10 -18 -22 -46 -26 -64 l-7 -33 41 41 c30 31 39 47 35 61
-9 31 -23 29 -43 -5z"/>
<path d="M795 580 c-5 -16 3 -32 34 -65 47 -51 55 -36 19 35 -26 50 -43 60
-53 30z"/>
<path d="M312 554 c-24 -17 -30 -62 -10 -82 7 -7 24 -12 38 -12 33 0 50 17 50
51 0 24 -30 59 -50 59 -3 0 -16 -7 -28 -16z"/>
<path d="M931 551 c-25 -25 -27 -54 -5 -75 22 -23 60 -20 78 6 19 27 20 39 4
60 -22 28 -55 31 -77 9z"/>
<path d="M583 549 c-20 -7 -23 -15 -23 -66 1 -54 2 -56 16 -38 15 21 37 91 32
105 -2 4 -13 4 -25 -1z"/>
<path d="M696 532 c10 -40 23 -72 37 -92 10 -15 12 -8 12 41 0 55 -2 59 -28
68 -26 10 -27 9 -21 -17z"/>
<path d="M496 495 c-52 -55 -70 -135 -30 -135 37 0 74 87 62 146 -3 17 -7 15
-32 -11z"/>
<path d="M776 503 c-13 -41 16 -129 46 -139 51 -16 48 60 -6 122 -31 36 -34
37 -40 17z"/>
<path d="M622 424 c-26 -18 -29 -56 -6 -78 39 -40 105 4 85 56 -8 22 -29 38
-50 38 -3 0 -17 -7 -29 -16z"/>
<path d="M185 175 c9 -42 24 -55 31 -27 8 28 20 28 28 0 l6 -23 15 25 c8 14
14 32 14 40 0 9 -6 5 -14 -10 l-15 -25 -6 23 c-3 12 -10 22 -14 22 -4 0 -11
-10 -14 -22 l-6 -23 -16 25 -15 25 6 -30z"/>
<path d="M710 190 c-6 -48 -6 -60 2 -60 4 0 8 7 8 15 0 21 38 19 43 -2 3 -10
5 0 5 22 0 22 -2 32 -5 23 -2 -10 -13 -18 -23 -18 -10 0 -21 8 -23 18 -4 13
-5 13 -7 2z"/>
<path d="M307 183 c-4 -3 -7 -17 -7 -30 0 -19 5 -23 28 -22 27 2 27 2 2 7 -23
4 -24 5 -5 13 17 6 17 8 3 8 -26 1 -22 19 5 24 20 4 20 4 1 6 -11 0 -24 -2
-27 -6z"/>
<path d="M381 167 c-6 -16 -11 -29 -11 -30 0 -1 11 -2 25 -2 28 0 32 12 11 41
-14 18 -15 18 -25 -9z"/>
<path d="M516 182 c7 -4 14 -18 17 -32 l4 -25 2 27 c0 14 7 29 14 31 6 3 -1 6
-18 6 -16 0 -25 -3 -19 -7z"/>
<path d="M582 160 c0 -19 2 -29 5 -22 2 6 13 12 23 12 10 0 21 -6 23 -12 3 -7
6 0 6 17 1 22 -2 26 -11 17 -17 -17 -36 -15 -41 6 -3 9 -5 1 -5 -18z"/>
<path d="M807 183 c-4 -3 -7 -17 -7 -30 0 -19 5 -23 28 -22 27 2 27 2 2 7 -23
4 -24 5 -5 13 17 6 17 8 3 8 -26 1 -22 19 5 24 20 4 20 4 1 6 -11 0 -24 -2
-27 -6z"/>
<path d="M881 167 c-6 -16 -11 -29 -11 -30 0 -1 11 -2 25 -2 28 0 32 12 11 41
-14 18 -15 18 -25 -9z"/>
<path d="M1016 182 c7 -4 14 -18 17 -32 l4 -25 2 27 c0 14 7 29 14 31 6 3 -1
6 -18 6 -16 0 -25 -3 -19 -7z"/>
<path d="M1082 160 c0 -19 2 -29 5 -22 2 6 13 12 23 12 10 0 21 -6 23 -12 3
-7 6 0 6 17 1 22 -2 26 -11 17 -17 -17 -36 -15 -41 6 -3 9 -5 1 -5 -18z"/>
<path d="M440 155 c0 -22 4 -25 33 -24 23 1 26 3 10 6 -15 3 -23 12 -23 24 0
10 -4 19 -10 19 -5 0 -10 -11 -10 -25z"/>
<path d="M940 155 c0 -22 4 -25 33 -24 23 1 26 3 10 6 -15 3 -23 12 -23 24 0
10 -4 19 -10 19 -5 0 -10 -11 -10 -25z"/>
</g>
</svg>
